<svg width="24" height="24" viewBox="0 0 24 24" fill="none" xmlns="http://www.w3.org/2000/svg">
<path d="M11.9556 5.6588C11.9966 4.54303 12.3101 3.56297 12.8886 2.7437C13.4701 1.92028 14.4314 1.33535 15.7473 1.00391C15.756 1.04443 15.7651 1.08497 15.7746 1.12536V1.33736C15.7746 1.81808 15.658 2.36931 15.4278 2.97564C15.1866 3.56271 14.8097 4.11524 14.309 4.61391C13.8408 5.0533 13.4076 5.3442 13.0247 5.4757C12.8983 5.51345 12.725 5.5506 12.5157 5.58405C12.3296 5.61305 12.1428 5.638 11.9556 5.6588Z" fill="#333333"/>
<path d="M12.1751 7.3145C10.6888 7.3145 9.6568 5.99995 8.19065 5.99995C6.72455 5.99995 3.7041 7.34755 3.7041 12C3.7041 16.6524 6.3863 19.65 6.6863 20C6.98625 20.35 7.68005 21.2497 8.7549 21.2497C9.8298 21.2497 11.0066 20.3951 12.1751 20.3951C13.3436 20.3951 14.8144 21.2497 15.7746 21.2497C16.7348 21.2497 17.1298 20.8583 17.7833 20.1831C18.4367 19.508 19.6832 17.4476 20.1185 16.211C19.4015 15.7842 17.5011 14.6256 17.5011 12C17.5011 10.2496 18.1407 8.79545 19.4201 7.6376C18.5808 6.54585 17.6074 5.99995 16.4998 5.99995C14.8385 5.99995 13.6615 7.3145 12.1751 7.3145Z" fill="#333333" stroke="#333333" stroke-width="2" stroke-linejoin="round"/>
</svg>
